<?xml version="1.0" encoding="UTF-8"?>
<svg width="30px" height="30px" viewBox="0 0 30 30" version="1.1" xmlns="http://www.w3.org/2000/svg" xmlns:xlink="http://www.w3.org/1999/xlink">
    <title>icon / email</title>
    <defs>
        <path d="M0.0950510293,1.8897306 L0,14.991074 C-0.00739237028,16.0407365 1.05472806,16.8964396 2.37322238,16.9027782 L2.37322238,16.9027782 L23.5036332,17 C24.8215968,17.0058851 25.8969871,16.1599011 25.904949,15.1102386 L25.904949,15.1102386 L26,2.00889519 C26.0073924,0.959232662 24.9447412,0.103529516 23.6262468,0.0971909746 L23.6262468,0.0971909746 L2.49636678,0 C2.49158963,0 2.48734327,0 2.48309691,0 L2.48309691,0 C1.17044133,0 0.103012952,0.843448631 0.0950510293,1.8897306" id="path-1"></path>
    </defs>
    <g id="icon-/-email" stroke="none" stroke-width="1" fill="none" fill-rule="evenodd">
        <g id="Group" transform="translate(0.000000, 3.000000)">
            <rect id="Rectangle" fill="#FF9F0A" x="0" y="0" width="30" height="25" rx="4"></rect>
            <g id="Group-5" transform="translate(2.000184, 1.959633)">
                <mask id="mask-2" fill="white">
                    <use xlink:href="#path-1"></use>
                </mask>
                <g id="Clip-4"></g>
                <path d="M28.028312,-0.16865548 L15.9139411,11.9628327 C14.2878716,13.5908706 11.6665618,13.57598 10.0588659,11.9287084 L-1.91647759,-0.343619919 C-3.52417343,-1.99151194 -3.50886204,-4.64700058 -1.88279253,-6.27565892 L10.2315784,-18.4065267 C11.8576479,-20.035185 14.4795702,-20.019674 16.0866535,-18.3724024 L28.0619971,-6.10007404 C29.6696929,-4.45280246 29.6543815,-1.79731382 28.028312,-0.16865548" id="Fill-3" fill="#FFFFFF" mask="url(#mask-2)"></path>
            </g>
        </g>
    </g>
</svg>