<?xml version="1.0" encoding="UTF-8"?>
<svg width="30px" height="30px" viewBox="0 0 30 30" version="1.1" xmlns="http://www.w3.org/2000/svg" xmlns:xlink="http://www.w3.org/1999/xlink">
    <title>icon / github</title>
    <g id="icon-/-github" stroke="none" stroke-width="1" fill="none" fill-rule="evenodd">
        <path d="M14.9986187,0 C6.71659658,0 0,6.65610973 0,14.8674109 C0,21.4359042 4.29755364,27.0077607 10.2581417,28.9736541 C11.0086252,29.1105548 11.2821142,28.6514812 11.2821142,28.2572074 C11.2821142,27.9049163 11.2692225,26.9694285 11.2618558,25.7291086 C7.0895362,26.6271769 6.20921452,23.7358351 6.20921452,23.7358351 C5.52687314,22.0181883 4.54341754,21.5609401 4.54341754,21.5609401 C3.18149728,20.6391424 4.64655146,20.6573958 4.64655146,20.6573958 C6.15212253,20.762353 6.94404371,22.1897704 6.94404371,22.1897704 C8.28202216,24.4614086 10.4552012,23.8051981 11.3097394,23.4246143 C11.4460235,22.4644844 11.8336966,21.8091866 12.2618865,21.4377295 C8.93121336,21.0626217 5.42926425,19.7867076 5.42926425,14.0898152 C5.42926425,12.4670861 6.01399675,11.1391498 6.97351054,10.1005301 C6.81880966,9.72450968 6.3040609,8.21221381 7.12084472,6.16600539 C7.12084472,6.16600539 8.37963105,5.76625548 11.2452807,7.69016599 C12.44145,7.35977908 13.725099,7.1954983 15.0004604,7.1891096 C16.274901,7.1954983 17.5576291,7.35977908 18.7556401,7.69016599 C21.6194481,5.76625548 22.8763928,6.16600539 22.8763928,6.16600539 C23.6950183,8.21221381 23.1802695,9.72450968 23.0264895,10.1005301 C23.9878449,11.1391498 24.5679732,12.4670861 24.5679732,14.0898152 C24.5679732,19.8013104 21.0604991,21.0580584 17.7196967,21.4258648 C18.2574665,21.8849383 18.7372234,22.7921333 18.7372234,24.1793932 C18.7372234,26.1662781 18.7188066,27.769841 18.7188066,28.2572074 C18.7188066,28.6551319 18.9895331,29.1178561 19.7501458,28.9727414 C25.7061297,27.0022847 30,21.4340788 30,14.8674109 C30,6.65610973 23.2834034,0 14.9986187,0" id="Fill-4" fill="#161514"></path>
    </g>
</svg>