<?xml version="1.0" encoding="UTF-8"?>
<svg width="30px" height="30px" viewBox="0 0 30 30" version="1.1" xmlns="http://www.w3.org/2000/svg" xmlns:xlink="http://www.w3.org/1999/xlink">
    <title>icon / bilibili</title>
    <g id="icon-/-bilibili" stroke="none" stroke-width="1" fill="none" fill-rule="evenodd">
        <g id="Group" transform="translate(0.000000, 1.146447)">
            <path d="M5.61733531,3.32936364 L13.1930048,3.33283456 C14.0608054,3.33323215 14.7641379,4.03673693 14.7643229,4.9045376 C14.7645078,5.77158536 14.0617766,6.47461634 13.1947288,6.47480123 C13.1943775,6.47480131 13.1940261,6.47480126 13.1936748,6.4748011 L5.61800532,6.47133019 C4.75020472,6.47093259 4.04687222,5.76742782 4.04668717,4.89962715 C4.04650228,4.03257938 4.74923348,3.32954841 5.61628125,3.32936352 C5.6166326,3.32936344 5.61698396,3.32936348 5.61733531,3.32936364 Z" id="Rectangle" fill="#32ADE6" transform="translate(9.405505, 4.902082) rotate(-315.000000) translate(-9.405505, -4.902082) "></path>
            <path d="M17.316883,3.34957716 L24.8925499,3.34610625 C25.7595968,3.345709 26.4627992,4.04826736 26.4631965,4.91531426 C26.4631966,4.91566562 26.4631967,4.91601697 26.4631966,4.91636833 C26.4630115,5.78416847 25.7596799,6.48767306 24.8918799,6.48807154 L17.3162056,6.49155012 C16.4491586,6.49194824 15.7459554,5.78939054 15.7455573,4.92234355 C15.7455571,4.92199044 15.7455571,4.92163732 15.7455571,4.9212842 C15.7457442,4.05348072 16.4490796,3.34997475 17.316883,3.34957716 Z" id="Rectangle-Copy-2" fill="#32ADE6" transform="translate(21.104375, 4.918829) rotate(-225.000000) translate(-21.104375, -4.918829) "></path>
            <rect id="Rectangle" stroke="#32ADE6" stroke-width="2.14285714" fill="#FFFFFF" x="1.07142857" y="6.41091185" width="27.8571429" height="20.371213" rx="3"></rect>
            <rect id="Rectangle" fill="#32ADE6" x="7.5" y="11.7720747" width="3.21428571" height="6.43259147" rx="1.60714286"></rect>
            <rect id="Rectangle-Copy" fill="#32ADE6" x="20.3571429" y="11.7720747" width="3.21428571" height="6.43259147" rx="1.60714286"></rect>
        </g>
    </g>
</svg>