<?xml version="1.0" encoding="UTF-8"?>
<svg width="30px" height="30px" viewBox="0 0 30 30" version="1.1" xmlns="http://www.w3.org/2000/svg" xmlns:xlink="http://www.w3.org/1999/xlink">
    <title>icon / csdn</title>
    <g id="icon-/-csdn" stroke="none" stroke-width="1" fill="none" fill-rule="evenodd">
        <path d="M25,6.09090909 L20.0304569,6.09090909 L20.0304569,1 L25,1 L25,6.09090909 Z M19.3604061,6.09090909 L14.3350254,6.09090909 L14.3350254,1 L19.3604061,1 L19.3604061,6.09090909 Z M13.6649746,6.09090909 L8.69543147,6.09090909 L8.69543147,1 L13.6649746,1 L13.6649746,6.09090909 Z M13.6649746,11.8040404 L8.69543147,11.8040404 L8.69543147,6.76969697 L13.6649746,6.76969697 L13.6649746,11.8040404 Z M8.02538071,11.8040404 L3,11.8040404 L3,6.76969697 L8.02538071,6.76969697 L8.02538071,11.8040404 Z M13.6649746,17.5171717 L8.69543147,17.5171717 L8.69543147,12.4828283 L13.6649746,12.4828283 L13.6649746,17.5171717 Z M25,29 L20.0304569,29 L20.0304569,23.9656566 L25,23.9656566 L25,29 Z M13.6649746,23.2868687 L8.69543147,23.2868687 L8.69543147,18.1959596 L13.6649746,18.1959596 L13.6649746,23.2868687 Z M19.3604061,29 L14.3350254,29 L14.3350254,23.9656566 L19.3604061,23.9656566 L19.3604061,29 Z M8.02538071,17.5171717 L3,17.5171717 L3,12.4828283 L8.02538071,12.4828283 L8.02538071,17.5171717 Z M8.02538071,23.2868687 L3,23.2868687 L3,18.1959596 L8.02538071,18.1959596 L8.02538071,23.2868687 Z M13.6649746,29 L8.69543147,29 L8.69543147,23.9656566 L13.6649746,23.9656566 L13.6649746,29 Z" id="c" fill="#34C759" fill-rule="nonzero"></path>
    </g>
</svg>