<?xml version="1.0" encoding="UTF-8"?>
<svg width="30px" height="30px" viewBox="0 0 30 30" version="1.1" xmlns="http://www.w3.org/2000/svg" xmlns:xlink="http://www.w3.org/1999/xlink">
    <title>icon / weibo</title>
    <g id="icon-/-weibo" stroke="none" stroke-width="1" fill="none" fill-rule="evenodd">
        <g id="Group" transform="translate(0.000000, 6.000000)">
            <path d="M15.6819276,5.50158512 C17.504429,4.13851009 21.1515602,3.53760769 22.8172063,4.37279861 C24.9480151,5.44118494 23.8978378,8.16541833 23.5228914,8.78242781 C23.3591593,9.05172058 23.239635,9.25281168 23.2876084,9.31462444 C23.3603055,9.40838176 23.7789683,9.41253456 24.1501488,9.46668061 C25.080638,9.60276451 26.5409641,10.1788849 26.8944616,11.5195988 C27.7018243,14.5818058 24.255459,24.2364144 11,23.5 C2,23 0,17 0,15.3210032 C0,8.66375371 7.33601418,-1.17469636 12.8591872,0.115065877 C15.219712,0.666269526 14.828065,3.25939537 14.1541439,5.06186804 C13.8649931,5.83556566 13.8947923,6.14990028 14.1137021,6.26186602 C14.5197576,6.46950576 14.8696529,6.10901122 15.6819276,5.50158512 Z" id="Fill-1" fill="#F4161E"></path>
            <path d="M21.98867,14.535566 C22.345289,18.0111358 18.2532495,21.2912048 12.8485449,21.8617349 C7.44384034,22.432265 2.77335151,20.0771512 2.41657588,16.6014217 C2.0599568,13.1258519 6.15199634,9.84578286 11.5567009,9.27525275 C16.9614055,8.70472263 21.6318943,11.0598365 21.98867,14.535566 Z" id="Fill-3" fill="#FFFFFF"></path>
            <path d="M16.1406884,14.5673189 C16.7389653,16.6477094 15.0412277,18.9243993 12.3483268,19.6525759 C9.65558965,20.3807525 6.98773975,19.2847341 6.38929913,17.2043436 C5.79102225,15.1241128 7.48892353,12.847423 10.1816607,12.1192464 C12.8743979,11.3910698 15.5424115,12.4870881 16.1406884,14.5673189 Z" id="Fill-5" fill="#000000"></path>
            <path d="M12.2565714,15.1907013 C12.3887032,15.3898757 12.2742545,15.6904742 12.0008219,15.8618568 C11.7272257,16.0333992 11.3984518,16.011038 11.26632,15.8118636 C11.1341882,15.6125294 11.2486369,15.3120907 11.5220694,15.1405483 C11.795502,14.969006 12.1242759,14.9915269 12.2565714,15.1907013 Z" id="Fill-7" fill="#FFFFFF"></path>
            <path d="M8.99471801,15.2812003 C9.91734807,14.9689421 10.8683038,15.3420547 11.1188138,16.1144745 C11.3693238,16.8867347 10.8245873,17.7660091 9.90195726,18.0781076 C8.9793272,18.3903658 8.02837149,18.0172532 7.77786147,17.2449931 C7.52735144,16.4725732 8.07208795,15.5934585 8.99471801,15.2812003" id="Fill-9" fill="#FFFFFF"></path>
        </g>
        <path d="M22,7 C24,7 25.3333333,7.75 26,10" id="Path-2" stroke="#FF9500" stroke-width="2" stroke-linecap="round"></path>
        <path d="M22,3 C25.5,3 27.8333333,4.25 29,8" id="Path-2-Copy" stroke="#FF9500" stroke-width="2" stroke-linecap="round"></path>
    </g>
</svg>