<?xml version="1.0" encoding="UTF-8"?>
<svg width="229px" height="50px" viewBox="0 0 229 50" version="1.1" xmlns="http://www.w3.org/2000/svg" xmlns:xlink="http://www.w3.org/1999/xlink">
    <title>icon / developing</title>
    <g id="icon-/-developing" stroke="none" stroke-width="1" fill="none" fill-rule="evenodd" fill-opacity="0.16">
        <g id="developing" transform="translate(1.991705, 12.390000)" fill="#787880" fill-rule="nonzero">
            <path d="M20.79,3.78 L17.052,3.78 L17.052,0 L20.79,0 L20.79,3.78 Z M16.548,3.78 L12.81,3.78 L12.81,0 L16.548,0 L16.548,3.78 Z M20.79,8.022 L17.052,8.022 L17.052,4.284 L20.79,4.284 L20.79,8.022 Z M16.548,8.022 L12.81,8.022 L12.81,4.284 L16.548,4.284 L16.548,8.022 Z M20.79,12.306 L17.052,12.306 L17.052,8.526 L20.79,8.526 L20.79,12.306 Z M16.548,12.306 L12.81,12.306 L12.81,8.526 L16.548,8.526 L16.548,12.306 Z M20.79,16.548 L17.052,16.548 L17.052,12.81 L20.79,12.81 L20.79,16.548 Z M12.306,12.306 L8.526,12.306 L8.526,8.526 L12.306,8.526 L12.306,12.306 Z M16.548,16.548 L12.81,16.548 L12.81,12.81 L16.548,12.81 L16.548,16.548 Z M20.79,20.79 L17.052,20.79 L17.052,17.052 L20.79,17.052 L20.79,20.79 Z M8.022,12.306 L4.284,12.306 L4.284,8.526 L8.022,8.526 L8.022,12.306 Z M20.79,25.074 L17.052,25.074 L17.052,21.294 L20.79,21.294 L20.79,25.074 Z M16.548,20.79 L12.81,20.79 L12.81,17.052 L16.548,17.052 L16.548,20.79 Z M8.022,16.548 L4.284,16.548 L4.284,12.81 L8.022,12.81 L8.022,16.548 Z M16.548,25.074 L12.81,25.074 L12.81,21.294 L16.548,21.294 L16.548,25.074 Z M20.79,29.316 L17.052,29.316 L17.052,25.578 L20.79,25.578 L20.79,29.316 Z M3.78,16.548 L0,16.548 L0,12.81 L3.78,12.81 L3.78,16.548 Z M8.022,20.79 L4.284,20.79 L4.284,17.052 L8.022,17.052 L8.022,20.79 Z M16.548,29.316 L12.81,29.316 L12.81,25.578 L16.548,25.578 L16.548,29.316 Z M8.022,25.074 L4.284,25.074 L4.284,21.294 L8.022,21.294 L8.022,25.074 Z M12.306,29.316 L8.526,29.316 L8.526,25.578 L12.306,25.578 L12.306,29.316 Z M3.78,20.79 L0,20.79 L0,17.052 L3.78,17.052 L3.78,20.79 Z M3.78,25.074 L0,25.074 L0,21.294 L3.78,21.294 L3.78,25.074 Z M8.022,29.316 L4.284,29.316 L4.284,25.578 L8.022,25.578 L8.022,29.316 Z" id="d"></path>
            <path d="M42.607059,12.306 L38.869059,12.306 L38.869059,8.526 L42.607059,8.526 L42.607059,12.306 Z M46.849059,16.548 L43.111059,16.548 L43.111059,12.81 L46.849059,12.81 L46.849059,16.548 Z M38.365059,12.306 L34.585059,12.306 L34.585059,8.526 L38.365059,8.526 L38.365059,12.306 Z M42.607059,16.548 L38.869059,16.548 L38.869059,12.81 L42.607059,12.81 L42.607059,16.548 Z M46.849059,20.79 L43.111059,20.79 L43.111059,17.052 L46.849059,17.052 L46.849059,20.79 Z M34.081059,12.306 L30.343059,12.306 L30.343059,8.526 L34.081059,8.526 L34.081059,12.306 Z M42.607059,20.79 L38.869059,20.79 L38.869059,17.052 L42.607059,17.052 L42.607059,20.79 Z M34.081059,16.548 L30.343059,16.548 L30.343059,12.81 L34.081059,12.81 L34.081059,16.548 Z M38.365059,20.79 L34.585059,20.79 L34.585059,17.052 L38.365059,17.052 L38.365059,20.79 Z M46.849059,29.316 L43.111059,29.316 L43.111059,25.578 L46.849059,25.578 L46.849059,29.316 Z M29.839059,16.548 L26.059059,16.548 L26.059059,12.81 L29.839059,12.81 L29.839059,16.548 Z M34.081059,20.79 L30.343059,20.79 L30.343059,17.052 L34.081059,17.052 L34.081059,20.79 Z M42.607059,29.316 L38.869059,29.316 L38.869059,25.578 L42.607059,25.578 L42.607059,29.316 Z M34.081059,25.074 L30.343059,25.074 L30.343059,21.294 L34.081059,21.294 L34.081059,25.074 Z M38.365059,29.316 L34.585059,29.316 L34.585059,25.578 L38.365059,25.578 L38.365059,29.316 Z M29.839059,20.79 L26.059059,20.79 L26.059059,17.052 L29.839059,17.052 L29.839059,20.79 Z M29.839059,25.074 L26.059059,25.074 L26.059059,21.294 L29.839059,21.294 L29.839059,25.074 Z M34.081059,29.316 L30.343059,29.316 L30.343059,25.578 L34.081059,25.578 L34.081059,29.316 Z" id="e"></path>
            <path d="M72.026118,12.306 L68.288118,12.306 L68.288118,8.526 L72.026118,8.526 L72.026118,12.306 Z M67.784118,12.306 L64.046118,12.306 L64.046118,8.526 L67.784118,8.526 L67.784118,12.306 Z M72.026118,16.548 L68.288118,16.548 L68.288118,12.81 L72.026118,12.81 L72.026118,16.548 Z M67.784118,16.548 L64.046118,16.548 L64.046118,12.81 L67.784118,12.81 L67.784118,16.548 Z M72.026118,20.79 L68.288118,20.79 L68.288118,17.052 L72.026118,17.052 L72.026118,20.79 Z M59.258118,12.306 L55.520118,12.306 L55.520118,8.526 L59.258118,8.526 L59.258118,12.306 Z M67.784118,20.79 L64.046118,20.79 L64.046118,17.052 L67.784118,17.052 L67.784118,20.79 Z M55.016118,12.306 L51.236118,12.306 L51.236118,8.526 L55.016118,8.526 L55.016118,12.306 Z M59.258118,16.548 L55.520118,16.548 L55.520118,12.81 L59.258118,12.81 L59.258118,16.548 Z M67.784118,25.074 L64.046118,25.074 L64.046118,21.294 L67.784118,21.294 L67.784118,25.074 Z M63.542118,25.074 L59.762118,25.074 L59.762118,21.294 L63.542118,21.294 L63.542118,25.074 Z M55.016118,16.548 L51.236118,16.548 L51.236118,12.81 L55.016118,12.81 L55.016118,16.548 Z M59.258118,20.79 L55.520118,20.79 L55.520118,17.052 L59.258118,17.052 L59.258118,20.79 Z M67.784118,29.316 L64.046118,29.316 L64.046118,25.578 L67.784118,25.578 L67.784118,29.316 Z M59.258118,25.074 L55.520118,25.074 L55.520118,21.294 L59.258118,21.294 L59.258118,25.074 Z M63.542118,29.316 L59.762118,29.316 L59.762118,25.578 L63.542118,25.578 L63.542118,29.316 Z M55.016118,20.79 L51.236118,20.79 L51.236118,17.052 L55.016118,17.052 L55.016118,20.79 Z M59.258118,29.316 L55.520118,29.316 L55.520118,25.578 L59.258118,25.578 L59.258118,29.316 Z" id="v"></path>
            <path d="M93.675177,12.306 L89.937177,12.306 L89.937177,8.526 L93.675177,8.526 L93.675177,12.306 Z M97.917177,16.548 L94.179177,16.548 L94.179177,12.81 L97.917177,12.81 L97.917177,16.548 Z M89.433177,12.306 L85.653177,12.306 L85.653177,8.526 L89.433177,8.526 L89.433177,12.306 Z M93.675177,16.548 L89.937177,16.548 L89.937177,12.81 L93.675177,12.81 L93.675177,16.548 Z M97.917177,20.79 L94.179177,20.79 L94.179177,17.052 L97.917177,17.052 L97.917177,20.79 Z M85.149177,12.306 L81.411177,12.306 L81.411177,8.526 L85.149177,8.526 L85.149177,12.306 Z M93.675177,20.79 L89.937177,20.79 L89.937177,17.052 L93.675177,17.052 L93.675177,20.79 Z M85.149177,16.548 L81.411177,16.548 L81.411177,12.81 L85.149177,12.81 L85.149177,16.548 Z M89.433177,20.79 L85.653177,20.79 L85.653177,17.052 L89.433177,17.052 L89.433177,20.79 Z M97.917177,29.316 L94.179177,29.316 L94.179177,25.578 L97.917177,25.578 L97.917177,29.316 Z M80.907177,16.548 L77.127177,16.548 L77.127177,12.81 L80.907177,12.81 L80.907177,16.548 Z M85.149177,20.79 L81.411177,20.79 L81.411177,17.052 L85.149177,17.052 L85.149177,20.79 Z M93.675177,29.316 L89.937177,29.316 L89.937177,25.578 L93.675177,25.578 L93.675177,29.316 Z M85.149177,25.074 L81.411177,25.074 L81.411177,21.294 L85.149177,21.294 L85.149177,25.074 Z M89.433177,29.316 L85.653177,29.316 L85.653177,25.578 L89.433177,25.578 L89.433177,29.316 Z M80.907177,20.79 L77.127177,20.79 L77.127177,17.052 L80.907177,17.052 L80.907177,20.79 Z M80.907177,25.074 L77.127177,25.074 L77.127177,21.294 L80.907177,21.294 L80.907177,25.074 Z M85.149177,29.316 L81.411177,29.316 L81.411177,25.578 L85.149177,25.578 L85.149177,29.316 Z" id="e"></path>
            <path d="M110.326236,3.78 L106.588236,3.78 L106.588236,0 L110.326236,0 L110.326236,3.78 Z M106.084236,3.78 L102.304236,3.78 L102.304236,0 L106.084236,0 L106.084236,3.78 Z M110.326236,8.022 L106.588236,8.022 L106.588236,4.284 L110.326236,4.284 L110.326236,8.022 Z M106.084236,8.022 L102.304236,8.022 L102.304236,4.284 L106.084236,4.284 L106.084236,8.022 Z M110.326236,12.306 L106.588236,12.306 L106.588236,8.526 L110.326236,8.526 L110.326236,12.306 Z M106.084236,12.306 L102.304236,12.306 L102.304236,8.526 L106.084236,8.526 L106.084236,12.306 Z M110.326236,16.548 L106.588236,16.548 L106.588236,12.81 L110.326236,12.81 L110.326236,16.548 Z M106.084236,16.548 L102.304236,16.548 L102.304236,12.81 L106.084236,12.81 L106.084236,16.548 Z M110.326236,20.79 L106.588236,20.79 L106.588236,17.052 L110.326236,17.052 L110.326236,20.79 Z M110.326236,25.074 L106.588236,25.074 L106.588236,21.294 L110.326236,21.294 L110.326236,25.074 Z M106.084236,20.79 L102.304236,20.79 L102.304236,17.052 L106.084236,17.052 L106.084236,20.79 Z M106.084236,25.074 L102.304236,25.074 L102.304236,21.294 L106.084236,21.294 L106.084236,25.074 Z M110.326236,29.316 L106.588236,29.316 L106.588236,25.578 L110.326236,25.578 L110.326236,29.316 Z M106.084236,29.316 L102.304236,29.316 L102.304236,25.578 L106.084236,25.578 L106.084236,29.316 Z" id="l"></path>
            <path d="M131.597295,12.306 L127.859295,12.306 L127.859295,8.526 L131.597295,8.526 L131.597295,12.306 Z M135.839295,16.548 L132.101295,16.548 L132.101295,12.81 L135.839295,12.81 L135.839295,16.548 Z M127.355295,12.306 L123.575295,12.306 L123.575295,8.526 L127.355295,8.526 L127.355295,12.306 Z M131.597295,16.548 L127.859295,16.548 L127.859295,12.81 L131.597295,12.81 L131.597295,16.548 Z M135.839295,20.79 L132.101295,20.79 L132.101295,17.052 L135.839295,17.052 L135.839295,20.79 Z M123.071295,12.306 L119.333295,12.306 L119.333295,8.526 L123.071295,8.526 L123.071295,12.306 Z M135.839295,25.074 L132.101295,25.074 L132.101295,21.294 L135.839295,21.294 L135.839295,25.074 Z M131.597295,20.79 L127.859295,20.79 L127.859295,17.052 L131.597295,17.052 L131.597295,20.79 Z M123.071295,16.548 L119.333295,16.548 L119.333295,12.81 L123.071295,12.81 L123.071295,16.548 Z M131.597295,25.074 L127.859295,25.074 L127.859295,21.294 L131.597295,21.294 L131.597295,25.074 Z M118.829295,16.548 L115.049295,16.548 L115.049295,12.81 L118.829295,12.81 L118.829295,16.548 Z M123.071295,20.79 L119.333295,20.79 L119.333295,17.052 L123.071295,17.052 L123.071295,20.79 Z M131.597295,29.316 L127.859295,29.316 L127.859295,25.578 L131.597295,25.578 L131.597295,29.316 Z M123.071295,25.074 L119.333295,25.074 L119.333295,21.294 L123.071295,21.294 L123.071295,25.074 Z M127.355295,29.316 L123.575295,29.316 L123.575295,25.578 L127.355295,25.578 L127.355295,29.316 Z M118.829295,20.79 L115.049295,20.79 L115.049295,17.052 L118.829295,17.052 L118.829295,20.79 Z M118.829295,25.074 L115.049295,25.074 L115.049295,21.294 L118.829295,21.294 L118.829295,25.074 Z M123.071295,29.316 L119.333295,29.316 L119.333295,25.578 L123.071295,25.578 L123.071295,29.316 Z" id="o"></path>
            <path d="M156.942354,12.306 L153.204354,12.306 L153.204354,8.526 L156.942354,8.526 L156.942354,12.306 Z M161.184354,16.548 L157.446354,16.548 L157.446354,12.81 L161.184354,12.81 L161.184354,16.548 Z M152.700354,12.306 L148.920354,12.306 L148.920354,8.526 L152.700354,8.526 L152.700354,12.306 Z M156.942354,16.548 L153.204354,16.548 L153.204354,12.81 L156.942354,12.81 L156.942354,16.548 Z M161.184354,20.79 L157.446354,20.79 L157.446354,17.052 L161.184354,17.052 L161.184354,20.79 Z M148.416354,12.306 L144.678354,12.306 L144.678354,8.526 L148.416354,8.526 L148.416354,12.306 Z M161.184354,25.074 L157.446354,25.074 L157.446354,21.294 L161.184354,21.294 L161.184354,25.074 Z M156.942354,20.79 L153.204354,20.79 L153.204354,17.052 L156.942354,17.052 L156.942354,20.79 Z M144.174354,12.306 L140.394354,12.306 L140.394354,8.526 L144.174354,8.526 L144.174354,12.306 Z M148.416354,16.548 L144.678354,16.548 L144.678354,12.81 L148.416354,12.81 L148.416354,16.548 Z M156.942354,25.074 L153.204354,25.074 L153.204354,21.294 L156.942354,21.294 L156.942354,25.074 Z M144.174354,16.548 L140.394354,16.548 L140.394354,12.81 L144.174354,12.81 L144.174354,16.548 Z M148.416354,20.79 L144.678354,20.79 L144.678354,17.052 L148.416354,17.052 L148.416354,20.79 Z M156.942354,29.316 L153.204354,29.316 L153.204354,25.578 L156.942354,25.578 L156.942354,29.316 Z M148.416354,25.074 L144.678354,25.074 L144.678354,21.294 L148.416354,21.294 L148.416354,25.074 Z M152.700354,29.316 L148.920354,29.316 L148.920354,25.578 L152.700354,25.578 L152.700354,29.316 Z M144.174354,20.79 L140.394354,20.79 L140.394354,17.052 L144.174354,17.052 L144.174354,20.79 Z M144.174354,25.074 L140.394354,25.074 L140.394354,21.294 L144.174354,21.294 L144.174354,25.074 Z M148.416354,29.316 L144.678354,29.316 L144.678354,25.578 L148.416354,25.578 L148.416354,29.316 Z M144.174354,29.316 L140.394354,29.316 L140.394354,25.578 L144.174354,25.578 L144.174354,29.316 Z M148.416354,33.6 L144.678354,33.6 L144.678354,29.82 L148.416354,29.82 L148.416354,33.6 Z M144.174354,33.6 L140.394354,33.6 L140.394354,29.82 L144.174354,29.82 L144.174354,33.6 Z M148.416354,37.926 L144.678354,37.926 L144.678354,34.146 L148.416354,34.146 L148.416354,37.926 Z M144.174354,37.926 L140.394354,37.926 L140.394354,34.146 L144.174354,34.146 L144.174354,37.926 Z" id="p"></path>
            <path d="M173.341413,3.78 L169.603413,3.78 L169.603413,0 L173.341413,0 L173.341413,3.78 Z M169.099413,3.78 L165.319413,3.78 L165.319413,0 L169.099413,0 L169.099413,3.78 Z M173.341413,12.306 L169.603413,12.306 L169.603413,8.526 L173.341413,8.526 L173.341413,12.306 Z M169.099413,12.306 L165.319413,12.306 L165.319413,8.526 L169.099413,8.526 L169.099413,12.306 Z M173.341413,16.548 L169.603413,16.548 L169.603413,12.81 L173.341413,12.81 L173.341413,16.548 Z M169.099413,16.548 L165.319413,16.548 L165.319413,12.81 L169.099413,12.81 L169.099413,16.548 Z M173.341413,20.79 L169.603413,20.79 L169.603413,17.052 L173.341413,17.052 L173.341413,20.79 Z M173.341413,25.074 L169.603413,25.074 L169.603413,21.294 L173.341413,21.294 L173.341413,25.074 Z M169.099413,20.79 L165.319413,20.79 L165.319413,17.052 L169.099413,17.052 L169.099413,20.79 Z M169.099413,25.074 L165.319413,25.074 L165.319413,21.294 L169.099413,21.294 L169.099413,25.074 Z M173.341413,29.316 L169.603413,29.316 L169.603413,25.578 L173.341413,25.578 L173.341413,29.316 Z M169.099413,29.316 L165.319413,29.316 L165.319413,25.578 L169.099413,25.578 L169.099413,29.316 Z" id="i"></path>
            <path d="M194.444472,12.306 L190.706472,12.306 L190.706472,8.526 L194.444472,8.526 L194.444472,12.306 Z M198.686472,16.548 L194.948472,16.548 L194.948472,12.81 L198.686472,12.81 L198.686472,16.548 Z M190.202472,12.306 L186.422472,12.306 L186.422472,8.526 L190.202472,8.526 L190.202472,12.306 Z M194.444472,16.548 L190.706472,16.548 L190.706472,12.81 L194.444472,12.81 L194.444472,16.548 Z M198.686472,20.79 L194.948472,20.79 L194.948472,17.052 L198.686472,17.052 L198.686472,20.79 Z M185.918472,12.306 L182.180472,12.306 L182.180472,8.526 L185.918472,8.526 L185.918472,12.306 Z M198.686472,25.074 L194.948472,25.074 L194.948472,21.294 L198.686472,21.294 L198.686472,25.074 Z M194.444472,20.79 L190.706472,20.79 L190.706472,17.052 L194.444472,17.052 L194.444472,20.79 Z M181.676472,12.306 L177.896472,12.306 L177.896472,8.526 L181.676472,8.526 L181.676472,12.306 Z M185.918472,16.548 L182.180472,16.548 L182.180472,12.81 L185.918472,12.81 L185.918472,16.548 Z M194.444472,25.074 L190.706472,25.074 L190.706472,21.294 L194.444472,21.294 L194.444472,25.074 Z M198.686472,29.316 L194.948472,29.316 L194.948472,25.578 L198.686472,25.578 L198.686472,29.316 Z M181.676472,16.548 L177.896472,16.548 L177.896472,12.81 L181.676472,12.81 L181.676472,16.548 Z M185.918472,20.79 L182.180472,20.79 L182.180472,17.052 L185.918472,17.052 L185.918472,20.79 Z M194.444472,29.316 L190.706472,29.316 L190.706472,25.578 L194.444472,25.578 L194.444472,29.316 Z M185.918472,25.074 L182.180472,25.074 L182.180472,21.294 L185.918472,21.294 L185.918472,25.074 Z M181.676472,20.79 L177.896472,20.79 L177.896472,17.052 L181.676472,17.052 L181.676472,20.79 Z M181.676472,25.074 L177.896472,25.074 L177.896472,21.294 L181.676472,21.294 L181.676472,25.074 Z M185.918472,29.316 L182.180472,29.316 L182.180472,25.578 L185.918472,25.578 L185.918472,29.316 Z M181.676472,29.316 L177.896472,29.316 L177.896472,25.578 L181.676472,25.578 L181.676472,29.316 Z" id="n"></path>
            <path d="M224.115531,12.306 L220.377531,12.306 L220.377531,8.526 L224.115531,8.526 L224.115531,12.306 Z M219.873531,12.306 L216.135531,12.306 L216.135531,8.526 L219.873531,8.526 L219.873531,12.306 Z M224.115531,16.548 L220.377531,16.548 L220.377531,12.81 L224.115531,12.81 L224.115531,16.548 Z M215.631531,12.306 L211.851531,12.306 L211.851531,8.526 L215.631531,8.526 L215.631531,12.306 Z M219.873531,16.548 L216.135531,16.548 L216.135531,12.81 L219.873531,12.81 L219.873531,16.548 Z M224.115531,20.79 L220.377531,20.79 L220.377531,17.052 L224.115531,17.052 L224.115531,20.79 Z M211.347531,12.306 L207.609531,12.306 L207.609531,8.526 L211.347531,8.526 L211.347531,12.306 Z M224.115531,25.074 L220.377531,25.074 L220.377531,21.294 L224.115531,21.294 L224.115531,25.074 Z M219.873531,20.79 L216.135531,20.79 L216.135531,17.052 L219.873531,17.052 L219.873531,20.79 Z M211.347531,16.548 L207.609531,16.548 L207.609531,12.81 L211.347531,12.81 L211.347531,16.548 Z M219.873531,25.074 L216.135531,25.074 L216.135531,21.294 L219.873531,21.294 L219.873531,25.074 Z M224.115531,29.316 L220.377531,29.316 L220.377531,25.578 L224.115531,25.578 L224.115531,29.316 Z M207.105531,16.548 L203.325531,16.548 L203.325531,12.81 L207.105531,12.81 L207.105531,16.548 Z M211.347531,20.79 L207.609531,20.79 L207.609531,17.052 L211.347531,17.052 L211.347531,20.79 Z M219.873531,29.316 L216.135531,29.316 L216.135531,25.578 L219.873531,25.578 L219.873531,29.316 Z M224.115531,33.6 L220.377531,33.6 L220.377531,29.82 L224.115531,29.82 L224.115531,33.6 Z M211.347531,25.074 L207.609531,25.074 L207.609531,21.294 L211.347531,21.294 L211.347531,25.074 Z M215.631531,29.316 L211.851531,29.316 L211.851531,25.578 L215.631531,25.578 L215.631531,29.316 Z M207.105531,20.79 L203.325531,20.79 L203.325531,17.052 L207.105531,17.052 L207.105531,20.79 Z M219.873531,33.6 L216.135531,33.6 L216.135531,29.82 L219.873531,29.82 L219.873531,33.6 Z M207.105531,25.074 L203.325531,25.074 L203.325531,21.294 L207.105531,21.294 L207.105531,25.074 Z M211.347531,29.316 L207.609531,29.316 L207.609531,25.578 L211.347531,25.578 L211.347531,29.316 Z M219.873531,37.926 L216.135531,37.926 L216.135531,34.146 L219.873531,34.146 L219.873531,37.926 Z M215.631531,37.926 L211.851531,37.926 L211.851531,34.146 L215.631531,34.146 L215.631531,37.926 Z M211.347531,37.926 L207.609531,37.926 L207.609531,34.146 L211.347531,34.146 L211.347531,37.926 Z" id="g"></path>
        </g>
    </g>
</svg>